<svg width="24" height="24" viewBox="0 0 24 24" fill="none" xmlns="http://www.w3.org/2000/svg">
<path d="M9.49805 2.99658V4.79733C9.49805 5.12847 9.72214 5.39758 9.99826 5.39758H13.9999C14.276 5.39758 14.5001 5.12847 14.5001 4.79733V2.99658" stroke-width="1.5" stroke-linecap="round" stroke-linejoin="round"/>
<path fill-rule="evenodd" clip-rule="evenodd" d="M7.99693 2.99658H16.0003C17.1057 2.99658 18.0011 3.89195 18.0011 4.99742V19.0032C18.0011 20.1087 17.1057 21.0041 16.0003 21.0041H7.99693C6.89147 21.0041 5.99609 20.1087 5.99609 19.0032V4.99742C5.99609 3.89195 6.89147 2.99658 7.99693 2.99658Z" stroke-width="1.5" stroke-linecap="round" stroke-linejoin="round"/>
<path d="M11.9992 18.3742C11.9302 18.3742 11.8742 18.4302 11.8752 18.4992C11.8752 18.5683 11.9312 18.6243 12.0002 18.6243C12.0692 18.6243 12.1253 18.5683 12.1253 18.4992C12.1253 18.4302 12.0692 18.3742 11.9992 18.3742" stroke-width="1.5" stroke-linecap="round" stroke-linejoin="round"/>
</svg>
